<?xml version="1.0" ?><svg id="Layer_1" style="enable-background:new 0 0 65 65;" version="1.1" viewBox="0 0 65 65" xml:space="preserve" xmlns="http://www.w3.org/2000/svg" xmlns:xlink="http://www.w3.org/1999/xlink"><style type="text/css">
	.st0{fill:#fff;}
</style><g><path class="st0" d="M57.5,61.2h-16c-0.4,0-0.8,0.3-0.8,0.8s0.3,0.8,0.8,0.8h16c0.4,0,0.8-0.3,0.8-0.8S57.9,61.2,57.5,61.2z"/><path class="st0" d="M63.5,61.2h-2c-0.4,0-0.8,0.3-0.8,0.8s0.3,0.8,0.8,0.8h2c0.4,0,0.8-0.3,0.8-0.8S63.9,61.2,63.5,61.2z"/><path class="st0" d="M6.5,2.7h11c0.4,0,0.8-0.3,0.8-0.8s-0.3-0.8-0.8-0.8h-11C6.1,1.2,5.8,1.6,5.8,2S6.1,2.7,6.5,2.7z"/><path class="st0" d="M1.5,2.7h1c0.4,0,0.8-0.3,0.8-0.8S2.9,1.2,2.5,1.2h-1C1.1,1.2,0.8,1.6,0.8,2S1.1,2.7,1.5,2.7z"/><path class="st0" d="M24.5,60.3h-1.3V59c0-0.4-0.3-0.8-0.8-0.8s-0.8,0.3-0.8,0.8v1.3h-1.3c-0.4,0-0.8,0.3-0.8,0.8s0.3,0.8,0.8,0.8   h1.3V63c0,0.4,0.3,0.8,0.8,0.8s0.8-0.3,0.8-0.8v-1.3h1.3c0.4,0,0.8-0.3,0.8-0.8S24.9,60.3,24.5,60.3z"/><path class="st0" d="M59.5,5.7h1.3V7c0,0.4,0.3,0.8,0.8,0.8s0.8-0.3,0.8-0.8V5.7h1.3c0.4,0,0.8-0.3,0.8-0.8s-0.3-0.8-0.8-0.8h-1.3   V3c0-0.4-0.3-0.8-0.8-0.8S60.8,2.6,60.8,3v1.3h-1.3c-0.4,0-0.8,0.3-0.8,0.8S59.1,5.7,59.5,5.7z"/><path class="st0" d="M64.2,15c0-0.4-0.3-0.8-0.8-0.8H45l-2.8-5.6c-0.1-0.3-0.4-0.4-0.7-0.4h-18c-0.3,0-0.5,0.2-0.7,0.4L20,14.3   h-3.8V11c0-0.4-0.3-0.8-0.8-0.8h-10c-0.4,0-0.8,0.3-0.8,0.8v3.3H1.5c-0.4,0-0.8,0.3-0.8,0.8v40c0,0.4,0.3,0.8,0.8,0.8h62   c0.4,0,0.8-0.3,0.8-0.8v-6c0,0,0,0,0,0s0,0,0,0V15z M6.3,11.7h8.5v2.5H6.3V11.7z M20.5,15.8c0.3,0,0.5-0.2,0.7-0.4L24,9.8H41   l2.8,5.6c0.1,0.3,0.4,0.4,0.7,0.4h18.3v8.5H48.5c-0.4,0-0.8,0.3-0.8,0.8s0.3,0.8,0.8,0.8h14.2v22.5H42.4c3.6-2.9,5.9-7.3,5.9-12.3   c0-8.7-7.1-15.8-15.8-15.8S16.8,27.3,16.8,36c0,4.9,2.3,9.4,5.9,12.3H2.2V25.7H17c0.4,0,0.8-0.3,0.8-0.8s-0.3-0.8-0.8-0.8H2.2v-8.5   H20.5z M18.3,36c0-7.9,6.4-14.3,14.3-14.3S46.8,28.1,46.8,36s-6.4,14.3-14.3,14.3S18.3,43.9,18.3,36z M2.2,54.3v-4.5h22.3   c0.1,0,0.2,0,0.3-0.1c2.3,1.3,4.9,2.1,7.7,2.1c2.8,0,5.4-0.7,7.7-2h22.6v4.5H2.2z"/><path class="st0" d="M44.3,36c0-6.5-5.3-11.8-11.8-11.8S20.8,29.5,20.8,36S26,47.7,32.5,47.7S44.3,42.5,44.3,36z M22.3,36   c0-5.7,4.6-10.3,10.3-10.3S42.8,30.3,42.8,36s-4.6,10.3-10.3,10.3S22.3,41.7,22.3,36z"/><path class="st0" d="M33.3,29c0-0.4-0.3-0.8-0.8-0.8c-4.3,0-7.8,3.5-7.8,7.8c0,0.4,0.3,0.8,0.8,0.8s0.8-0.3,0.8-0.8   c0-3.4,2.8-6.3,6.3-6.3C32.9,29.7,33.3,29.4,33.3,29z"/><path class="st0" d="M27.5,13.7h10c0.4,0,0.8-0.3,0.8-0.8s-0.3-0.8-0.8-0.8h-10c-0.4,0-0.8,0.3-0.8,0.8S27.1,13.7,27.5,13.7z"/><path class="st0" d="M55.5,22.7c1.5,0,2.8-1.2,2.8-2.8s-1.2-2.8-2.8-2.8s-2.8,1.2-2.8,2.8S54,22.7,55.5,22.7z M55.5,18.7   c0.7,0,1.3,0.6,1.3,1.3s-0.6,1.3-1.3,1.3s-1.3-0.6-1.3-1.3S54.8,18.7,55.5,18.7z"/></g></svg>