<?xml version="1.0" ?><svg enable-background="new 0 0 32 32" version="1.1" viewBox="-8 -6 50 45" xml:space="preserve" xmlns="http://www.w3.org/2000/svg" xmlns:xlink="http://www.w3.org/1999/xlink"><g id="Outline_copy_2"><g><path d="M6.477,23.798c-1.236,0-2.472,0-3.708,0c-0.085,0-0.379,0.029-0.379,0.167c0,2.545,0,5.089,0,7.634    c0,0.224,0.493,0.235,0.618,0.235c1.272,0,2.543,0,3.815,0c0.085,0,0.379-0.029,0.379-0.167c0-2.545,0-5.089,0-7.634    C7.203,23.839,6.772,23.756,6.477,23.798z M6.205,24.201c0,2.41,0,4.821,0,7.231c-0.939,0-1.878,0-2.818,0c0-2.41,0-4.821,0-7.231    C4.327,24.201,5.266,24.201,6.205,24.201z"/><path d="M12.789,19.437c-1.237,0-2.474,0-3.711,0c-0.119,0-0.489,0.047-0.489,0.225c0,3.999,0,7.998,0,11.997    c0,0.183,0.416,0.174,0.51,0.174c1.272,0,2.543,0,3.815,0c0.119,0,0.489-0.047,0.489-0.225c0-3.999,0-7.998,0-11.997    C13.403,19.454,13.071,19.4,12.789,19.437z M12.404,19.837c0,3.866,0,7.731,0,11.597c-0.939,0-1.878,0-2.817,0    c0-3.866,0-7.731,0-11.597C10.526,19.837,11.465,19.837,12.404,19.837z"/><path d="M18.858,14.501c-1.258,0-2.516,0-3.774,0c-0.057,0-0.282,0.005-0.282,0.109c0,5.635,0,11.27,0,16.904    c0,0.261,0.502,0.347,0.69,0.347c1.272,0,2.543,0,3.815,0c0.057,0,0.282-0.005,0.282-0.109c0-5.635,0-11.269,0-16.904    C19.589,14.632,19.146,14.496,18.858,14.501z M17.91,31.406c-0.707-0.041-1.423-0.023-2.137-0.01c0-3.596,0-7.192,0-10.787    c0-1.627-0.348-3.702,0-5.304c0.132-0.608-0.38-0.41,0.708-0.347c0.707,0.041,1.423,0.023,2.137,0.01c0,3.596,0,7.192,0,10.787    c0,1.627,0.348,3.702,0,5.304C18.486,31.667,18.998,31.469,17.91,31.406z"/><path d="M25.188,9.622c-1.237,0-2.474,0-3.71,0c-0.119,0-0.489,0.047-0.489,0.225c0,7.271,0,14.541,0,21.812    c0,0.183,0.416,0.174,0.509,0.174c1.272,0,2.543,0,3.815,0c0.119,0,0.489-0.047,0.489-0.225c0-7.271,0-14.541,0-21.812    C25.802,9.639,25.47,9.585,25.188,9.622z M21.917,31.434c-0.003,0-0.005,0.001-0.008,0.001c0.029-0.056,0.057-0.132,0.078-0.258    c0.099-0.607,0-1.32,0-1.934c0-4.448,0-8.897,0-13.345c0-1.688,0.398-3.943,0-5.592c-0.049-0.201-0.107-0.309-0.152-0.368    c0.05,0.029,0.13,0.061,0.259,0.085c0.843,0.154,1.812,0.054,2.71,0.017c0,3.077,0,6.155,0,9.232c0,2.39,0,4.78,0,7.17    c0,1.35-0.37,3.32,0,4.623c0.029,0.101,0.017,0.266,0.005,0.396C23.937,31.597,22.754,31.504,21.917,31.434z"/><path d="M31.277,6.349c-1.237,0-2.473,0-3.71,0c-0.086,0-0.379,0.03-0.379,0.169c0,8.361,0,16.722,0,25.084    c0,0.224,0.495,0.233,0.619,0.233c1.272,0,2.544,0,3.815,0c0.086,0,0.379-0.03,0.379-0.169c0-8.361,0-16.722,0-25.084    C32.002,6.388,31.572,6.306,31.277,6.349z M28.187,31.474c0-5.018,0-10.036,0-15.054c0-2.805,0-5.609,0-8.414    c0-0.25,0.153-1.307-0.113-1.343c0.572-0.193,2.017-0.037,2.93,0.045c0,5.018,0,10.036,0,15.054c0,2.805,0,5.609,0,8.414    c0,0.25-0.153,1.306,0.112,1.342C30.544,31.713,29.099,31.556,28.187,31.474z"/><path d="M21.777,0.76l0.978,1.244L-0.002,20.128C0.032,20.14,0.841,21.1,0.841,21.1L23.479,2.927l0.978,1.244l1.606-4.032    L21.777,0.76z"/></g></g></svg>